<?xml version="1.0" encoding="UTF-8"?>
<svg version="1.1" xmlns="http://www.w3.org/2000/svg" width="48" height="48">
<path d="M0 0 C0.495 0.33 0.99 0.66 1.5 1 C1.17 3.64 0.84 6.28 0.5 9 C0.83 8.01 1.16 7.02 1.5 6 C2.49 6 3.48 6 4.5 6 C3.84 8.31 3.18 10.62 2.5 13 C3.82 13 5.14 13 6.5 13 C6.335 14.093125 6.17 15.18625 6 16.3125 C5.43281816 19.87525873 5.43281816 19.87525873 5.5 23 C5.5 23.99 5.5 24.98 5.5 26 C6.139375 26.226875 6.77875 26.45375 7.4375 26.6875 C9.5 28 9.5 28 10.3125 30.5 C10.5 33 10.5 33 9.5 35 C8.84 35 8.18 35 7.5 35 C7.5 33.35 7.5 31.7 7.5 30 C5.46892969 29.900575 5.46892969 29.900575 3.5 30.625 C2.84 30.74875 2.18 30.8725 1.5 31 C0.84 30.34 0.18 29.68 -0.5 29 C-0.37822312 30.91466367 -0.37822312 30.91466367 0.5 33 C2.14821244 34.03013277 3.81503702 35.03114628 5.5 36 C5.83 36.99 6.16 37.98 6.5 39 C7.16 39 7.82 39 8.5 39 C8.5 39.99 8.5 40.98 8.5 42 C4.61807772 45.17611823 1.41419022 45.46360285 -3.5 45 C-4.16 44.34 -4.82 43.68 -5.5 43 C-5.5 42.01 -5.5 41.02 -5.5 40 C-4.84 40 -4.18 40 -3.5 40 C-3.17 40.66 -2.84 41.32 -2.5 42 C-0.025 41.505 -0.025 41.505 2.5 41 C2.5 39.68 2.5 38.36 2.5 37 C0.85 37 -0.8 37 -2.5 37 C-2.83 37.66 -3.16 38.32 -3.5 39 C-4.16 39 -4.82 39 -5.5 39 C-7.125 36.5 -7.125 36.5 -8.5 34 C-8.17 35.65 -7.84 37.3 -7.5 39 C-8.49 38.34 -9.48 37.68 -10.5 37 C-13.14632287 37.3121764 -13.14632287 37.3121764 -15.5 38 C-15.17 39.32 -14.84 40.64 -14.5 42 C-10.89007621 41.34414811 -10.89007621 41.34414811 -7.5 40 C-8.375 43.875 -8.375 43.875 -9.5 45 C-12.9375 45.1875 -12.9375 45.1875 -16.5 45 C-18.5 43 -18.5 43 -19 39.625 C-18.5 36 -18.5 36 -15.5 33.5625 C-14.015 32.7890625 -14.015 32.7890625 -12.5 32 C-13.985 32.495 -13.985 32.495 -15.5 33 C-16.49 33 -17.48 33 -18.5 33 C-19.49 35.475 -19.49 35.475 -20.5 38 C-21.16 38 -21.82 38 -22.5 38 C-22.29375 37.21625 -22.0875 36.4325 -21.875 35.625 C-21.75125 34.75875 -21.6275 33.8925 -21.5 33 C-22.16 32.34 -22.82 31.68 -23.5 31 C-23.125 28.375 -23.125 28.375 -22.5 26 C-21.18 25.67 -19.86 25.34 -18.5 25 C-17.84 26.65 -17.18 28.3 -16.5 30 C-14.93750191 28.68798827 -14.93750191 28.68798827 -13.5 27 C-13.5 26.01 -13.5 25.02 -13.5 24 C-15.15 24 -16.8 24 -18.5 24 C-21.5 17.375 -21.5 17.375 -21.5 14 C-19.52 13.67 -17.54 13.34 -15.5 13 C-16.16 10.69 -16.82 8.38 -17.5 6 C-14.5 7 -14.5 7 -13.5 9 C-13.83 6.36 -14.16 3.72 -14.5 1 C-10.13338636 -1.91107576 -4.77017978 -1.90807191 0 0 Z M-11.5 2 C-10.5 4 -10.5 4 -10.5 4 Z M-8.5 2 C-7.5 4 -7.5 4 -7.5 4 Z M-5.5 2 C-4.5 4 -4.5 4 -4.5 4 Z M-2.5 2 C-1.5 5 -1.5 5 -1.5 5 Z M-15.5 13 C-14.5 16 -14.5 16 -14.5 16 Z M-14.5 16 C-13.5 18 -13.5 18 -13.5 18 Z M-9.5 16 C-9.17 17.32 -8.84 18.64 -8.5 20 C-6.55925139 19.72382467 -6.55925139 19.72382467 -4.5 19 C-3.84 18.01 -3.18 17.02 -2.5 16 C-4.81 16 -7.12 16 -9.5 16 Z M-13.5 18 C-12.94271087 21.34373475 -12.14826111 24.03312999 -10.5 27 C-9.84 26.67 -9.18 26.34 -8.5 26 C-9.82 23.36 -11.14 20.72 -12.5 18 C-12.83 18 -13.16 18 -13.5 18 Z M-1.5 21 C-0.5 23 -0.5 23 -0.5 23 Z M-2.5 23 C-1.5 25 -1.5 25 -1.5 25 Z M1.5 23 C1.17 24.32 0.84 25.64 0.5 27 C1.49 26.67 2.48 26.34 3.5 26 C3.17 25.01 2.84 24.02 2.5 23 C2.17 23 1.84 23 1.5 23 Z M-3.5 25 C-3.5 28 -3.5 28 -3.5 28 Z M-20.5 27 C-20.83 27.66 -21.16 28.32 -21.5 29 C-20.84 29.66 -20.18 30.32 -19.5 31 C-19.83 29.68 -20.16 28.36 -20.5 27 Z M-7.5 30 C-7.17 30.99 -6.84 31.98 -6.5 33 C-6.17 32.01 -5.84 31.02 -5.5 30 C-6.16 30 -6.82 30 -7.5 30 Z M-4.5 33 C-3.5 35 -3.5 35 -3.5 35 Z " fill="#F4F2C0" transform="translate(30.5,2)"/>
<path d="M0 0 C0.495 0.33 0.99 0.66 1.5 1 C1.17 3.64 0.84 6.28 0.5 9 C0.83 8.01 1.16 7.02 1.5 6 C2.49 6 3.48 6 4.5 6 C1.3107329 17.64874155 1.3107329 17.64874155 -1.5 21 C-4.125 21.6875 -4.125 21.6875 -6.5 22 C-6.83 22.66 -7.16 23.32 -7.5 24 C-8.49 24 -9.48 24 -10.5 24 C-11.67112946 21.37690901 -12.83705964 18.75171858 -14 16.125 C-14.33386719 15.37863281 -14.66773438 14.63226563 -15.01171875 13.86328125 C-15.32753906 13.14785156 -15.64335937 12.43242187 -15.96875 11.6953125 C-16.26201172 11.03547363 -16.55527344 10.37563477 -16.85742188 9.69580078 C-17.5 8 -17.5 8 -17.5 6 C-14.5 7 -14.5 7 -13.5 9 C-13.83 6.36 -14.16 3.72 -14.5 1 C-10.13338636 -1.91107576 -4.77017978 -1.90807191 0 0 Z M-11.5 2 C-10.5 4 -10.5 4 -10.5 4 Z M-8.5 2 C-7.5 4 -7.5 4 -7.5 4 Z M-5.5 2 C-4.5 4 -4.5 4 -4.5 4 Z M-2.5 2 C-1.5 5 -1.5 5 -1.5 5 Z M-9.5 16 C-9.17 17.32 -8.84 18.64 -8.5 20 C-6.55925139 19.72382467 -6.55925139 19.72382467 -4.5 19 C-3.84 18.01 -3.18 17.02 -2.5 16 C-4.81 16 -7.12 16 -9.5 16 Z " fill="#DEDAA6" transform="translate(30.5,2)"/>
<path d="M0 0 C1.32 0 2.64 0 4 0 C3.835 1.093125 3.67 2.18625 3.5 3.3125 C2.93281816 6.87525873 2.93281816 6.87525873 3 10 C3 10.99 3 11.98 3 13 C3.639375 13.226875 4.27875 13.45375 4.9375 13.6875 C7 15 7 15 7.8125 17.5 C8 20 8 20 7 22 C6.34 22 5.68 22 5 22 C5 20.35 5 18.7 5 17 C2.96892969 16.900575 2.96892969 16.900575 1 17.625 C0.34 17.74875 -0.32 17.8725 -1 18 C-1.66 17.34 -2.32 16.68 -3 16 C-2.87822312 17.91466367 -2.87822312 17.91466367 -2 20 C-0.35178756 21.03013277 1.31503702 22.03114628 3 23 C3.33 23.99 3.66 24.98 4 26 C4.66 26 5.32 26 6 26 C6 26.99 6 27.98 6 29 C2.11807772 32.17611823 -1.08580978 32.46360285 -6 32 C-6.66 31.34 -7.32 30.68 -8 30 C-8 29.01 -8 28.02 -8 27 C-7.34 27 -6.68 27 -6 27 C-5.67 27.66 -5.34 28.32 -5 29 C-3.35 28.67 -1.7 28.34 0 28 C0 26.68 0 25.36 0 24 C-1.65 24 -3.3 24 -5 24 C-5.33 24.66 -5.66 25.32 -6 26 C-6.66 26 -7.32 26 -8 26 C-10.04169485 23.09451118 -11 21.59857954 -11 18 C-9.33333333 18 -7.66666667 18 -6 18 C-5.8453125 16.7934375 -5.8453125 16.7934375 -5.6875 15.5625 C-4.61103966 9.98447823 -3.16520974 4.74781462 0 0 Z M-1 10 C-1.33 11.32 -1.66 12.64 -2 14 C-1.01 13.67 -0.02 13.34 1 13 C0.67 12.01 0.34 11.02 0 10 C-0.33 10 -0.66 10 -1 10 Z M-7 20 C-6 22 -6 22 -6 22 Z " fill="#BCBB8A" transform="translate(33,15)"/>
<path d="M0 0 C1.32 0 2.64 0 4 0 C3.835 1.093125 3.67 2.18625 3.5 3.3125 C2.93281816 6.87525873 2.93281816 6.87525873 3 10 C3 10.99 3 11.98 3 13 C3.639375 13.226875 4.27875 13.45375 4.9375 13.6875 C7 15 7 15 7.8125 17.5 C8 20 8 20 7 22 C6.34 22 5.68 22 5 22 C5 20.35 5 18.7 5 17 C2.84365964 17 1.07553648 17.4465236 -1 18 C-1.33 16.68 -1.66 15.36 -2 14 C-1.01 13.67 -0.02 13.34 1 13 C0.67 12.34 0.34 11.68 0 11 C-0.99 11.33 -1.98 11.66 -3 12 C-3.94721072 9.39517051 -4.30222393 7.69325299 -3.17578125 5.109375 C-2.17063275 3.37417127 -1.0893855 1.68359577 0 0 Z " fill="#C0BF95" transform="translate(33,15)"/>
<path d="M0 0 C0.99 0 1.98 0 3 0 C-0.1892671 11.64874155 -0.1892671 11.64874155 -3 15 C-5.625 15.6875 -5.625 15.6875 -8 16 C-8.33 16.66 -8.66 17.32 -9 18 C-9.99 18 -10.98 18 -12 18 C-12.99 15.69 -13.98 13.38 -15 11 C-13.68 10.67 -12.36 10.34 -11 10 C-10.67 11.32 -10.34 12.64 -10 14 C-5.57187219 11.81942614 -4.05376638 9.84486122 -2.1875 5.3125 C-1.76855469 4.31863281 -1.34960938 3.32476562 -0.91796875 2.30078125 C-0.61503906 1.54152344 -0.31210937 0.78226563 0 0 Z " fill="#F1EEB3" transform="translate(32,8)"/>
<path d="M0 0 C0.99 0 1.98 0 3 0 C3.50266794 2.12437048 4.0020561 4.24951726 4.5 6.375 C4.91765625 8.15003906 4.91765625 8.15003906 5.34375 9.9609375 C6 13 6 13 6 15 C4.35 15.33 2.7 15.66 1 16 C0.32880451 14.5437455 -0.33681807 13.08492133 -1 11.625 C-1.37125 10.81289062 -1.7425 10.00078125 -2.125 9.1640625 C-3 7 -3 7 -3 5 C0 6 0 6 1 8 C0.67 5.36 0.34 2.72 0 0 Z " fill="#CBAC62" transform="translate(16,3)"/>
<path d="M0 0 C0.66 0.99 1.32 1.98 2 3 C1.67 3.99 1.34 4.98 1 6 C0.34 5.34 -0.32 4.68 -1 4 C-3.60280568 4.32041397 -3.60280568 4.32041397 -6 5 C-5.67 6.32 -5.34 7.64 -5 9 C-1.39007621 8.34414811 -1.39007621 8.34414811 2 7 C1.125 10.875 1.125 10.875 0 12 C-3.4375 12.1875 -3.4375 12.1875 -7 12 C-9 10 -9 10 -9.5 6.625 C-9 3 -9 3 -6.1875 0.5 C-3 -1 -3 -1 0 0 Z " fill="#F0EFC2" transform="translate(21,35)"/>
<path d="M0 0 C2.0625 0.4375 2.0625 0.4375 4 1 C4.33 2.32 4.66 3.64 5 5 C6.32 4.01 7.64 3.02 9 2 C9.33 2.66 9.66 3.32 10 4 C8.1875 6 8.1875 6 6 8 C5.01 8 4.02 8 3 8 C2.34 9.65 1.68 11.3 1 13 C0.34 13 -0.32 13 -1 13 C-0.690625 11.824375 -0.690625 11.824375 -0.375 10.625 C-0.25125 9.75875 -0.1275 8.8925 0 8 C-0.66 7.34 -1.32 6.68 -2 6 C-1.44444444 1.44444444 -1.44444444 1.44444444 0 0 Z M1 2 C0.67 2.66 0.34 3.32 0 4 C0.66 4.66 1.32 5.32 2 6 C1.67 4.68 1.34 3.36 1 2 Z " fill="#827F62" transform="translate(9,27)"/>
<path d="M0 0 C0.66 0 1.32 0 2 0 C2 0.66 2 1.32 2 2 C2.66 2 3.32 2 4 2 C4.0270043 3.45823212 4.04639787 4.91660675 4.0625 6.375 C4.07410156 7.18710938 4.08570313 7.99921875 4.09765625 8.8359375 C4 11 4 11 3 13 C1.68 13 0.36 13 -1 13 C-1.02708567 11.39592672 -1.04643483 9.7917215 -1.0625 8.1875 C-1.07410156 7.29417969 -1.08570312 6.40085937 -1.09765625 5.48046875 C-1 3 -1 3 0 0 Z " fill="#EFEAAA" transform="translate(23,5)"/>
<path d="M0 0 C1.32 0.66 2.64 1.32 4 2 C4 2.66 4 3.32 4 4 C4.66 4 5.32 4 6 4 C6 4.99 6 5.98 6 7 C2.11807772 10.17611823 -1.08580978 10.46360285 -6 10 C-6.66 9.34 -7.32 8.68 -8 8 C-8 7.01 -8 6.02 -8 5 C-7.34 5 -6.68 5 -6 5 C-5.67 5.66 -5.34 6.32 -5 7 C-3.35 6.67 -1.7 6.34 0 6 C0 4.02 0 2.04 0 0 Z " fill="#B09C68" transform="translate(33,37)"/>
<path d="M0 0 C3.77126791 1.01180358 4.78414572 1.67621858 7 5 C6.625 7.6875 6.625 7.6875 6 10 C5.34 10 4.68 10 4 10 C4 8.35 4 6.7 4 5 C1.84365964 5 0.07553648 5.4465236 -2 6 C-2.33 4.68 -2.66 3.36 -3 2 C-2.01 1.34 -1.02 0.68 0 0 Z " fill="#909181" transform="translate(34,27)"/>
<path d="M0 0 C0.33 1.32 0.66 2.64 1 4 C0.01 4 -0.98 4 -2 4 C-1.67 4.598125 -1.34 5.19625 -1 5.8125 C0 8 0 8 0 11 C-0.99 11 -1.98 11 -3 11 C-6 4.375 -6 4.375 -6 1 C-3 0 -3 0 0 0 Z " fill="#CBC598" transform="translate(15,15)"/>
<path d="M0 0 C1.859375 0.2265625 1.859375 0.2265625 4 1 C5.265625 2.9609375 5.265625 2.9609375 6.25 5.375 C6.58515625 6.16648437 6.9203125 6.95796875 7.265625 7.7734375 C8 10 8 10 8 13 C7.34 13 6.68 13 6 13 C5.34 11.02 4.68 9.04 4 7 C3.34 7 2.68 7 2 7 C0.5393715 4.35261084 0 3.10551666 0 0 Z " fill="#E3E3AD" transform="translate(13,19)"/>
<path d="M0 0 C0.33 1.32 0.66 2.64 1 4 C2.32 3.67 3.64 3.34 5 3 C4.34 4.65 3.68 6.3 3 8 C1.68 8 0.36 8 -1 8 C-1.99 5.69 -2.98 3.38 -4 1 C-2 0 -2 0 0 0 Z " fill="#DCDAA6" transform="translate(21,18)"/>
<path d="M0 0 C0.99 0 1.98 0 3 0 C2.71617054 1.75128818 2.42260471 3.50100003 2.125 5.25 C1.96257813 6.22453125 1.80015625 7.1990625 1.6328125 8.203125 C1.05144152 10.77264117 0.29159735 12.72071056 -1 15 C-1.66 15 -2.32 15 -3 15 C-3 14.34 -3 13.68 -3 13 C-2.34 13 -1.68 13 -1 13 C-1.01160156 12.39671875 -1.02320312 11.7934375 -1.03515625 11.171875 C-1.04417969 10.37265625 -1.05320312 9.5734375 -1.0625 8.75 C-1.07410156 7.96109375 -1.08570312 7.1721875 -1.09765625 6.359375 C-1.00385306 4.09308998 -0.63241063 2.1711105 0 0 Z " fill="#CEBA74" transform="translate(29,3)"/>
<path d="M0 0 C0.66 0.66 1.32 1.32 2 2 C0.1875 4 0.1875 4 -2 6 C-2.99 6 -3.98 6 -5 6 C-5.66 7.65 -6.32 9.3 -7 11 C-7.66 11 -8.32 11 -9 11 C-7.125 6.25 -7.125 6.25 -6 4 C-4.33333333 3.33333333 -2.66666667 2.66666667 -1 2 C-0.67 1.34 -0.34 0.68 0 0 Z " fill="#66695A" transform="translate(17,29)"/>
<path d="M0 0 C1.51953125 1.11328125 1.51953125 1.11328125 3 3 C3.07421875 5.91796875 3.07421875 5.91796875 2.6875 9.1875 C2.56761719 10.27417969 2.44773437 11.36085938 2.32421875 12.48046875 C2.21722656 13.31191406 2.11023438 14.14335937 2 15 C1.67 15 1.34 15 1 15 C0.63911385 12.68853911 0.28645809 10.37579171 -0.0625 8.0625 C-0.25972656 6.77472656 -0.45695312 5.48695312 -0.66015625 4.16015625 C-0.82837891 2.59587891 -0.82837891 2.59587891 -1 1 C-0.67 0.67 -0.34 0.34 0 0 Z " fill="#D8CC8C" transform="translate(20,1)"/>
<path d="M0 0 C1.44197868 2.88395737 1.58833581 5.82430479 2 9 C0 9 -2 9 -4 9 C-3.46930939 5.17902761 -2.50298434 2.93828597 0 0 Z " fill="#DFDEB8" transform="translate(34,18)"/>
<path d="M0 0 C0.86625 0.556875 0.86625 0.556875 1.75 1.125 C0.780625 1.41375 -0.18875 1.7025 -1.1875 2 C-4.35664203 2.76714682 -4.35664203 2.76714682 -5.25 5.125 C-5.91 5.125 -6.57 5.125 -7.25 5.125 C-7 3.25 -7 3.25 -6.25 1.125 C-3.78477471 -0.74517091 -2.92889069 -1.13901305 0 0 Z " fill="#B1AB80" transform="translate(32.25,35.875)"/>
<path d="M0 0 C0.99 0 1.98 0 3 0 C3.33 2.97 3.66 5.94 4 9 C1.18167487 7.59083743 0.97406539 5.92219617 0 3 C0 2.01 0 1.02 0 0 Z " fill="#C49E5D" transform="translate(16,3)"/>
<path d="M0 0 C0.33 0.99 0.66 1.98 1 3 C-1 5 -1 5 -4.625 5.125 C-5.73875 5.08375 -6.8525 5.0425 -8 5 C-6 2 -6 2 -3.4375 1.375 C-2.2309375 1.189375 -2.2309375 1.189375 -1 1 C-0.67 0.67 -0.34 0.34 0 0 Z " fill="#BBBA93" transform="translate(22,42)"/>
<path d="M0 0 C0.99 0 1.98 0 3 0 C2.34 2.64 1.68 5.28 1 8 C0.01 7.67 -0.98 7.34 -2 7 C-1.34 4.69 -0.68 2.38 0 0 Z " fill="#DEDBA4" transform="translate(32,8)"/>
<path d="M0 0 C3 1 3 1 5 4 C4.67 4.99 4.34 5.98 4 7 C2.35 5.68 0.7 4.36 -1 3 C-0.67 2.01 -0.34 1.02 0 0 Z " fill="#BBBC9D" transform="translate(18,34)"/>
<path d="M0 0 C0.33 1.65 0.66 3.3 1 5 C-0.9375 4.6875 -0.9375 4.6875 -3 4 C-3.33 3.01 -3.66 2.02 -4 1 C-2 0 -2 0 0 0 Z " fill="#E3D885" transform="translate(21,18)"/>
</svg>
